<svg  viewBox="0 0 19 15" fill="none" xmlns="http://www.w3.org/2000/svg">
<g clip-path="url(#clip0)">
<path d="M10.4488 1.74096C10.175 1.26131 9.52731 1.17833 9.15989 1.57595C7.55102 3.31728 8.09716 2.78512 7.3769 3.30426L7.8631 2.29782C8.09986 1.80777 7.7974 1.21751 7.26117 1.12336C6.72519 1.02918 6.26222 1.48495 6.34041 2.03049L6.60965 3.90869C6.32655 4.15193 6.05402 4.40994 5.79247 4.68224L6.09736 3.80709C6.27699 3.29162 5.91073 2.73949 5.3684 2.70739C4.82623 2.67566 4.41884 3.18296 4.55778 3.71695L5.03463 5.54981C4.76848 5.8848 4.54666 6.19394 4.31272 6.5539C4.49003 5.63874 4.48191 5.6907 4.4869 5.62652C4.52594 5.12418 4.10506 4.69095 3.59874 4.73553C2.85193 4.80112 2.67596 5.80742 3.10278 5.78869C3.21952 5.78355 3.30825 5.68341 3.301 5.56505C3.28741 5.33815 3.47369 5.13958 3.7149 5.16333C3.93912 5.18542 4.10321 5.40082 4.0585 5.63049L3.81961 6.86356L3.58375 6.29873C3.53789 6.18887 3.41347 6.13593 3.3059 6.18031C3.19833 6.22474 3.14831 6.34984 3.19417 6.45967L3.53049 7.54663C2.64406 9.31999 3.11028 10.76 4.0585 7.87044C5.98486 8.19364 5.83219 8.18004 5.87264 8.18402C6.3842 8.2344 6.81006 7.78902 6.73066 7.26233C6.64843 6.7176 6.07193 6.39932 5.58333 6.62935L4.43661 7.16912C4.69991 6.73422 4.99862 6.29589 5.33679 5.86589C7.22757 6.47326 7.13231 6.45008 7.25182 6.46184C7.70436 6.50641 8.12188 6.15084 8.11795 5.65703C8.11368 5.10761 7.58682 4.70928 7.06923 4.8653L5.87847 5.22404C6.18256 4.88829 6.51351 4.5618 6.87355 4.25061C8.70017 5.07698 8.625 5.05931 8.80271 5.07681C9.59928 5.15526 10.0015 4.11082 9.33737 3.6108C9.24273 3.53954 9.11032 3.5584 9.04165 3.65306C8.97303 3.74769 8.99417 3.8822 9.08886 3.95352C9.1997 4.03699 9.26031 4.171 9.24539 4.31186C9.21901 4.56147 8.95782 4.7269 8.71463 4.61691L7.57023 4.09917L8.43781 3.94492C8.55261 3.92449 8.62762 3.81333 8.60532 3.69661C8.58305 3.57992 8.47207 3.50189 8.35712 3.52224L7.6317 3.65125C7.77679 3.54671 7.92611 3.44485 8.07937 3.3457L9.93748 2.93818C10.4656 2.82227 10.7227 2.22073 10.4488 1.74096ZM5.76757 7.01907C6.15672 6.83586 6.5034 7.35092 6.20522 7.64924C6.11878 7.73569 5.99996 7.77371 5.87835 7.75327L4.64681 7.54663L5.76757 7.01907ZM5.69773 3.65762L5.28587 4.83986L4.96714 3.61488C4.85654 3.18969 5.41512 2.95181 5.65311 3.31074C5.72203 3.41472 5.7383 3.54115 5.69773 3.65762ZM7.19681 5.27678C7.31373 5.24162 7.43769 5.26433 7.53684 5.33919C7.87938 5.59779 7.61651 6.15042 7.20263 6.01754L6.00985 5.63438L7.19681 5.27678ZM6.93887 3.22782L6.7595 1.9766C6.74182 1.85336 6.78163 1.73346 6.86873 1.64765C7.1692 1.35165 7.67063 1.71305 7.48203 2.10342L6.93887 3.22782ZM10.1045 2.29931C10.0561 2.41254 9.9599 2.49247 9.84053 2.51867L8.6288 2.78443L9.47156 1.87225C9.76236 1.55754 10.2719 1.90723 10.1045 2.29931Z" fill="#456C4B"/>
<path d="M2.8828 14.0469L2.64843 13.9297C2.5703 13.8359 2.52343 13.7266 2.5078 13.6016L2.53124 8.9375C1.45311 7.21875 0.74218 5.96094 0.39843 5.16407L0.515617 4.92969C0.640617 4.83594 0.789054 4.79688 0.96093 4.8125L1.1953 4.92969C1.46093 5.42969 1.7578 5.91408 2.08593 6.38283C2.41405 6.84376 2.58983 7.2383 2.95311 7.82422C3.3164 8.41016 3.48956 7.625 3.48046 9.04297C3.47136 10.4609 3.43358 13.6953 3.43358 13.6953L3.3164 13.9297C3.20702 14.0234 3.06249 14.0625 2.8828 14.0469Z" fill="#394049"/>
<path d="M7.40624 14.2344C7.20311 14.2031 7.01952 14.0938 6.85546 13.9063C6.6914 13.7188 6.61718 13.5039 6.6328 13.2617C6.64843 13.0195 6.7539 12.8086 6.94921 12.6289C7.14452 12.4414 7.37499 12.3789 7.64061 12.4414C7.91405 12.5039 8.1289 12.6289 8.28515 12.8164C8.44921 12.9961 8.51952 13.2031 8.49608 13.4375C8.47265 13.6641 8.37108 13.8594 8.1914 14.0234C8.01171 14.1953 7.74999 14.2656 7.40624 14.2344Z" fill="#6897BA"/>
<path d="M13.5039 13.7891C13.1992 13.7578 12.9219 13.6758 12.6719 13.543C12.4219 13.4102 12.1211 13.1563 11.7695 12.7813C11.418 12.3984 11.1523 11.8672 10.9727 11.1875C10.793 10.5078 10.7148 9.85938 10.7383 9.24219C10.7617 8.625 10.8359 8.08594 10.9609 7.625C11.0859 7.16407 11.2695 6.79688 11.5117 6.52344C11.7539 6.24219 11.9648 6.03125 12.1445 5.89063C12.3242 5.75 12.5195 5.63672 12.7305 5.55079C12.9414 5.46485 13.168 5.40625 13.4102 5.375C13.6602 5.34375 13.9219 5.34375 14.1953 5.375C14.4688 5.40625 14.7148 5.51563 14.9336 5.70313C15.0742 5.84375 15.1367 6.01563 15.1211 6.21875L15.0039 6.45313C14.8945 6.54688 14.7539 6.58594 14.582 6.57032C14.1758 6.32032 13.8516 6.21485 13.6094 6.25391C13.3672 6.29297 13.1016 6.41797 12.8125 6.62891C12.5312 6.83985 12.2969 7.08594 12.1094 7.36719C11.9219 7.64063 11.793 7.9961 11.7227 8.4336C11.6523 8.8711 11.6406 9.32422 11.6875 9.79297C11.7344 10.2617 11.8164 10.707 11.9336 11.1289C12.0508 11.5508 12.2148 11.8789 12.4258 12.1133C12.6445 12.3477 12.8477 12.5273 13.0352 12.6523C13.2227 12.7695 13.4258 12.8242 13.6445 12.8164C13.8633 12.8086 14.1133 12.6914 14.3945 12.4648L14.6758 12.4414L14.9102 12.5586C15.0039 12.6758 15.043 12.8203 15.0273 12.9922C14.6367 13.3984 14.3398 13.6328 14.1367 13.6953C13.9336 13.7578 13.7227 13.7891 13.5039 13.7891Z" fill="#394049"/>
<path d="M17.4062 14.2344C17.2031 14.2031 17.0195 14.0938 16.8555 13.9063C16.6914 13.7188 16.6172 13.5039 16.6328 13.2617C16.6484 13.0195 16.7539 12.8086 16.9492 12.6289C17.1445 12.4414 17.375 12.3789 17.6406 12.4414C17.9141 12.5039 18.1289 12.6289 18.2852 12.8164C18.4492 12.9961 18.5195 13.2031 18.4961 13.4375C18.4727 13.6641 18.3711 13.8594 18.1914 14.0234C18.0117 14.1953 17.75 14.2656 17.4062 14.2344Z" fill="#F7DC97"/>
<path d="M2.9268 14.2862L2.69218 14.1658C2.61397 14.0694 2.56705 13.957 2.55141 13.8285L2.57487 9.03384C1.49561 7.26698 0.783916 5.97396 0.439804 5.15478L0.557113 4.91384C0.682247 4.81747 0.830841 4.77731 1.0029 4.79338L1.23752 4.91384C1.50343 5.42784 1.80061 5.92577 2.12909 6.40764C2.45756 6.88148 2.63352 7.28706 2.99719 7.8894C3.36086 8.49174 3.5342 7.6846 3.52509 9.14226C3.51598 10.5999 3.47817 13.9248 3.47817 13.9248L3.36086 14.1658C3.25136 14.2621 3.10668 14.3023 2.9268 14.2862Z" fill="#456C4B"/>
</g>
<defs>
<clipPath id="clip0">
<rect width="21" height="15" fill="white"/>
</clipPath>
</defs>
</svg>
