<svg width="232" height="80" viewBox="0 0 58 20" fill="none" xmlns="http://www.w3.org/2000/svg">
<g clip-path="url(#clip0)">
<g clip-path="url(#clip1)">
<path d="M13.0039 17.9531L12.7695 17.8359C12.6133 17.3516 12.4883 16.8555 12.3945 16.3477C12.3008 15.832 12.207 15.3242 12.1133 14.8242L9.96875 14.8008C9.84375 15.1758 9.74609 15.5625 9.67578 15.9609C9.60547 16.3594 9.54688 16.8281 9.5 17.3672L9.38281 17.6016C9.25781 17.6953 9.10938 17.7344 8.9375 17.7188L8.70312 17.6016C8.59375 17.4609 8.54688 17.2969 8.5625 17.1094C8.75 15.8359 9.05078 14.5899 9.46484 13.3711C9.87891 12.1524 10.3359 10.9453 10.8359 9.75001C11.0469 9.46095 11.2773 9.45314 11.5273 9.72658C12.0742 10.9844 12.4922 12.2774 12.7812 13.6055C13.0703 14.9336 13.3242 16.2656 13.543 17.6016L13.4258 17.8359C13.3164 17.9297 13.1758 17.9688 13.0039 17.9531ZM11.9258 13.9102C11.832 13.4414 11.7227 13.0039 11.5977 12.5977C11.4727 12.1914 11.3164 11.8086 11.1289 11.4492C10.9492 11.8399 10.8008 12.2383 10.6836 12.6445C10.5664 13.0508 10.4375 13.457 10.2969 13.8633L11.9258 13.9102Z" fill="#394049"/>
<path d="M16.625 18.0469C16.4219 18.0156 16.2305 17.9453 16.0508 17.8359C15.8711 17.7266 15.6875 17.6328 15.5 17.5547C15.4062 17.4297 15.3516 17.2891 15.3359 17.1328C15.3516 17 15.3984 16.8867 15.4766 16.793C15.5859 16.6992 15.7266 16.6602 15.8984 16.6758C16.1016 16.7852 16.2969 16.9023 16.4844 17.0273C16.6719 17.1445 16.918 17.1797 17.2227 17.1328C17.5352 17.0781 17.7852 16.9648 17.9727 16.793C18.1602 16.6211 18.2305 16.4375 18.1836 16.2422C18.1367 16.0469 17.9687 15.9141 17.6797 15.8437C17.3906 15.7734 17.0469 15.6797 16.6484 15.5625C16.2578 15.4453 15.9414 15.2617 15.6992 15.0117C15.457 14.7617 15.293 14.5156 15.207 14.2734C15.1211 14.0312 15.0898 13.7891 15.1133 13.5469C15.1367 13.3047 15.1992 13.0898 15.3008 12.9023C15.4023 12.7148 15.5742 12.5039 15.8164 12.2695C16.0586 12.0352 16.3164 11.8672 16.5898 11.7656C16.8711 11.6641 17.1602 11.6367 17.457 11.6836C17.7539 11.7305 18.0195 11.8555 18.2539 12.0586C18.4883 12.2617 18.5898 12.4648 18.5586 12.668L18.4414 12.9023C18.332 12.9961 18.1914 13.0352 18.0195 13.0195C17.6211 12.7227 17.3086 12.5937 17.082 12.6328C16.8633 12.6641 16.6641 12.7539 16.4844 12.9023C16.3125 13.043 16.1758 13.25 16.0742 13.5234C15.9805 13.7891 16.0156 14.0156 16.1797 14.2031C16.3516 14.3906 16.5273 14.5312 16.707 14.625C16.8867 14.7109 17.1758 14.7852 17.5742 14.8477C17.9805 14.9102 18.3242 15.0547 18.6055 15.2812C18.8867 15.5078 19.0508 15.75 19.0977 16.0078C19.1445 16.2656 19.1406 16.5234 19.0859 16.7812C19.0312 17.0312 18.8867 17.2656 18.6523 17.4844C18.418 17.7031 18.1211 17.8555 17.7617 17.9414C17.4023 18.0273 17.0234 18.0625 16.625 18.0469Z" fill="#394049"/>
<path d="M24.0898 18L23.8555 17.8828C23.6992 17.6641 23.5391 17.4492 23.375 17.2383C23.2109 17.0273 23.0898 16.793 23.0117 16.5352C22.8789 16.7305 22.6523 16.9766 22.332 17.2734C22.0117 17.5703 21.6875 17.7266 21.3594 17.7422L21.125 17.625C21.0312 17.5 20.9922 17.3516 21.0078 17.1797L21.125 16.9453C21.4219 16.8516 21.6641 16.6992 21.8516 16.4883C22.0391 16.2695 22.1797 16.0586 22.2734 15.8555C22.3672 15.6524 22.4453 15.4414 22.5078 15.2227C22.2891 14.4727 22.1094 13.7149 21.9688 12.9492C21.8281 12.1836 21.7695 11.5274 21.793 10.9805C21.8164 10.4258 21.8594 10.0039 21.9219 9.71485C21.9844 9.42579 22.1055 9.1836 22.2852 8.98829C22.4648 8.79297 22.6797 8.73438 22.9297 8.8125C23.1875 8.88282 23.3867 9.04688 23.5273 9.30469C23.668 9.55469 23.7734 9.89454 23.8438 10.3242C23.9141 10.7461 23.9648 11.1406 23.9961 11.5078C24.0352 11.8672 24.0352 12.2852 23.9961 12.7617C23.9648 13.2305 23.9023 13.668 23.8086 14.0742C23.7148 14.4805 23.6211 14.8867 23.5273 15.293C23.6211 15.543 23.7109 15.793 23.7969 16.043C23.8828 16.293 24.1211 16.6641 24.5117 17.1562C24.6211 17.2969 24.6602 17.4609 24.6289 17.6484L24.5117 17.8828C24.4023 17.9766 24.2617 18.0156 24.0898 18ZM23.0352 13.2305C23.1289 12.4414 23.1602 11.9141 23.1289 11.6484C23.0977 11.375 23.0703 11.1133 23.0469 10.8633C23.0312 10.6055 22.9922 10.4063 22.9297 10.2656C22.8672 10.1172 22.8164 10.0938 22.7773 10.1953C22.7383 10.2891 22.707 10.4375 22.6836 10.6406C22.6602 10.8359 22.6562 11.082 22.6719 11.3789C22.6875 11.6758 22.7266 12.0078 22.7891 12.375C22.8516 12.7422 22.9258 13.1055 23.0117 13.4649L23.0352 13.2305Z" fill="#394049"/>
<path d="M27.5234 19.4766L27.2891 19.3594C27.2109 19.2344 27.1641 19.1016 27.1484 18.9609C27.4453 18.4766 27.7266 17.9805 27.9922 17.4727C28.2578 16.957 28.5078 16.4336 28.7422 15.9023C28.3359 15.4648 27.9531 15.043 27.5938 14.6367C27.2344 14.2305 26.9141 13.8008 26.6328 13.3477L26.6094 13.0664L26.7266 12.832C26.8516 12.7383 27 12.6992 27.1719 12.7148L27.4062 12.832C27.6406 13.2227 27.9062 13.5938 28.2031 13.9453C28.5 14.2969 28.8477 14.6602 29.2461 15.0352C29.4961 14.6133 29.7422 14.1875 29.9844 13.7578C30.2266 13.3281 30.4727 12.9024 30.7227 12.4805C30.8477 12.3867 30.9961 12.3477 31.168 12.3633L31.4023 12.4805C31.4961 12.5899 31.5352 12.7305 31.5195 12.9023C30.8789 13.9492 30.2773 15.0234 29.7148 16.125C29.1602 17.2188 28.5781 18.2891 27.9688 19.3359C27.8438 19.4453 27.6953 19.4922 27.5234 19.4766Z" fill="#394049"/>
<path d="M36.6055 17.9531L36.3711 17.8359C36.2305 17.6328 36.1836 17.3984 36.2305 17.1328C36.2617 16.8125 36.2891 16.5039 36.3125 16.207C36.3359 15.9102 36.3438 15.6133 36.3359 15.3164C36.3281 15.0195 36.2812 14.75 36.1953 14.5078C36.1094 14.2656 35.9805 14.0586 35.8086 13.8867C35.6367 13.7149 35.4375 13.6445 35.2109 13.6758C34.9922 13.707 34.7969 13.8359 34.625 14.0625C34.4531 14.2891 34.2734 14.543 34.0859 14.8242C33.8984 15.1055 33.7812 15.418 33.7344 15.7617V16.9102L33.7578 17.2266L33.6406 17.4609C33.5312 17.5547 33.3906 17.5938 33.2188 17.5781L32.9844 17.4609C32.8281 16.6875 32.7344 15.9024 32.7031 15.1055C32.6719 14.3086 32.625 13.5195 32.5625 12.7383C32.5781 12.6133 32.625 12.5039 32.7031 12.4102C32.8125 12.3164 32.9531 12.2774 33.125 12.293L33.3594 12.4102C33.4375 12.6445 33.4844 12.8906 33.5 13.1484C33.5156 13.4063 33.5312 13.668 33.5469 13.9336C33.7188 13.7149 33.8906 13.5117 34.0625 13.3242C34.2344 13.1367 34.4414 12.9805 34.6836 12.8555C34.9336 12.7305 35.2227 12.6953 35.5508 12.75C35.8789 12.8047 36.1758 12.9609 36.4414 13.2188C36.707 13.4766 36.9062 13.7813 37.0391 14.1328C37.1797 14.4844 37.2344 14.9883 37.2031 15.6445C37.1797 16.3008 37.168 16.7734 37.168 17.0625C37.168 17.3438 37.1211 17.6016 37.0273 17.8359C36.918 17.9297 36.7773 17.9688 36.6055 17.9531Z" fill="#394049"/>
</g>
<path d="M32.6893 6.26093C32.1864 6.26093 31.7316 6.07107 31.4086 5.76665C31.0855 6.07113 30.6308 6.26093 30.1279 6.26093C29.1499 6.26093 28.3543 5.54329 28.3543 4.6612C28.3543 4.41573 28.5749 4.2168 28.847 4.2168C29.1192 4.2168 29.3397 4.41579 29.3397 4.6612C29.3397 5.05317 29.6932 5.37208 30.1278 5.37208C30.5623 5.37208 30.9159 5.05317 30.9159 4.6612C30.9159 4.41573 31.1364 4.2168 31.4085 4.2168C31.6807 4.2168 31.9012 4.41579 31.9012 4.6612C31.9012 5.05317 32.2548 5.37208 32.6893 5.37208C33.1238 5.37208 33.4774 5.05317 33.4774 4.6612C33.4774 4.41573 33.6979 4.2168 33.9701 4.2168C34.2422 4.2168 34.4627 4.41579 34.4627 4.6612C34.4629 5.54329 33.6673 6.26093 32.6893 6.26093Z" fill="#394049"/>
<path d="M25.4927 3.37951C25.2205 3.37951 25 3.18052 25 2.93511V2.4444C25 2.19894 25.2205 2 25.4927 2C25.7649 2 25.9854 2.19899 25.9854 2.4444V2.93511C25.9854 3.18052 25.7649 3.37951 25.4927 3.37951Z" fill="#394049"/>
<path d="M37.3244 3.37951C37.0522 3.37951 36.8317 3.18052 36.8317 2.93511V2.4444C36.8317 2.19894 37.0523 2 37.3244 2C37.5965 2 37.8171 2.19899 37.8171 2.4444V2.93511C37.8172 3.18052 37.5965 3.37951 37.3244 3.37951Z" fill="#394049"/>
<path d="M1.94286 6.46027C2.18931 6.49475 2.39963 6.64297 2.51996 6.86686C3.62512 8.92283 3.23672 8.28074 3.79158 8.95694L3.56494 7.88145C3.45448 7.35717 3.86806 6.87561 4.38818 6.92355C4.90822 6.97142 5.23668 7.52105 5.04173 8.01742L4.37081 9.72535C4.57963 10.0277 4.77506 10.3412 4.95723 10.6654L4.86981 9.76119C4.84523 9.50708 4.93688 9.26361 5.12119 9.09326C5.50821 8.73551 6.12248 8.86578 6.34353 9.35242C6.44879 9.58415 6.44117 9.84542 6.32265 10.0692L5.46856 11.6817C5.6328 12.0484 5.78172 12.4268 5.91508 12.8165L5.95152 11.9872C5.97501 11.4519 6.49525 11.0956 6.9868 11.2784C7.47826 11.4611 7.6595 12.078 7.34718 12.5061L6.262 13.9939C6.56703 15.2211 6.73093 16.5512 6.73826 17.8743C6.73888 17.9839 6.6574 18.0738 6.55305 18.0829C6.4336 18.0934 6.33155 17.9967 6.33091 17.8747C6.32566 16.9281 6.2331 15.5973 5.87346 14.1408L4.1519 13.9689C3.63218 13.9171 3.30777 13.3649 3.50637 12.8701C3.70493 12.3754 4.31271 12.2215 4.71578 12.564L5.65883 13.3652C5.51084 12.8837 5.33154 12.3938 5.11536 11.9043L3.36714 11.989C2.94888 12.0093 2.59193 11.6899 2.55449 11.262C2.54672 11.1731 2.55366 11.0836 2.57511 10.996C2.75641 10.2558 3.77073 10.2573 3.66539 10.6782C3.63741 10.7899 3.52647 10.8568 3.41746 10.8276C3.17629 10.7628 2.93722 10.9639 2.9602 11.2265C2.97795 11.4294 3.14739 11.5807 3.34601 11.5711L4.5418 11.5132L4.07021 11.2177C3.97399 11.1574 3.94318 11.0287 4.00142 10.9301C4.05965 10.8316 4.18488 10.8005 4.28113 10.8608L4.75575 11.1581C4.54771 10.7616 4.31302 10.3683 4.04845 9.98268C2.1795 10.2956 2.30313 10.2759 2.25961 10.2797C1.77262 10.3223 1.35746 9.88957 1.42361 9.37775C1.49225 8.8467 2.04083 8.53827 2.51526 8.764L3.47732 9.22176C3.36575 9.08574 3.2497 8.95122 3.12946 8.81834L1.49116 7.95759C1.26946 7.84111 1.11862 7.62983 1.07724 7.37794C0.990418 6.84918 1.42525 6.38774 1.94286 6.46027ZM7.02074 12.2542C7.16888 12.0511 7.08298 11.7584 6.84974 11.6717C6.61656 11.585 6.36966 11.754 6.35847 12.008L6.30449 13.2362L7.02074 12.2542ZM4.45698 12.8858C4.38125 12.8214 4.28699 12.7914 4.19164 12.7997C3.74612 12.8387 3.74741 13.5083 4.18938 13.5524L5.38167 13.6715L4.45698 12.8858ZM5.39356 10.946L5.96459 9.86794C6.16285 9.49357 5.6961 9.12597 5.39446 9.40484C5.30698 9.48567 5.26351 9.60121 5.27517 9.72178L5.39356 10.946ZM3.96306 7.79478L4.21656 8.99786L4.66381 7.8593C4.76598 7.59928 4.56535 7.31579 4.28829 7.34003C4.07482 7.35873 3.91514 7.56727 3.96306 7.79478ZM2.34546 9.14353C1.96799 8.964 1.64367 9.46463 1.93646 9.75666C2.0213 9.84123 2.13659 9.87856 2.25295 9.85908L3.43382 9.66137L2.34546 9.14353ZM1.67538 7.58532L2.74341 8.14647L2.16353 7.06772C2.08969 6.93032 1.94866 6.86022 1.80741 6.87258C1.44209 6.90454 1.34773 7.4132 1.67538 7.58532Z" fill="#456C4B"/>
<g clip-path="url(#clip2)">
<path d="M49.4488 5.74096C49.175 5.26131 48.5273 5.17833 48.1599 5.57595C46.551 7.31728 47.0972 6.78512 46.3769 7.30426L46.8631 6.29782C47.0999 5.80777 46.7974 5.21751 46.2612 5.12336C45.7252 5.02918 45.2622 5.48495 45.3404 6.03049L45.6097 7.90869C45.3266 8.15193 45.054 8.40994 44.7925 8.68224L45.0974 7.80709C45.277 7.29162 44.9107 6.73949 44.3684 6.70739C43.8262 6.67566 43.4188 7.18296 43.5578 7.71695L44.0346 9.54981C43.7685 9.8848 43.5467 10.1939 43.3127 10.5539C43.49 9.63874 43.4819 9.6907 43.4869 9.62652C43.5259 9.12418 43.1051 8.69095 42.5987 8.73553C41.8519 8.80112 41.676 9.80742 42.1028 9.78869C42.2195 9.78355 42.3083 9.68341 42.301 9.56505C42.2874 9.33815 42.4737 9.13958 42.7149 9.16333C42.9391 9.18542 43.1032 9.40082 43.0585 9.63049L42.8196 10.8636L42.5838 10.2987C42.5379 10.1889 42.4135 10.1359 42.3059 10.1803C42.1983 10.2247 42.1483 10.3498 42.1942 10.4597L42.5305 11.5466C41.6441 13.32 42.1103 14.76 43.0585 11.8704C44.9849 12.1936 44.8322 12.18 44.8726 12.184C45.3842 12.2344 45.8101 11.789 45.7307 11.2623C45.6484 10.7176 45.0719 10.3993 44.5833 10.6294L43.4366 11.1691C43.6999 10.7342 43.9986 10.2959 44.3368 9.86589C46.2276 10.4733 46.1323 10.4501 46.2518 10.4618C46.7044 10.5064 47.1219 10.1508 47.118 9.65703C47.1137 9.10761 46.5868 8.70928 46.0692 8.8653L44.8785 9.22404C45.1826 8.88829 45.5135 8.5618 45.8736 8.25061C47.7002 9.07698 47.625 9.05931 47.8027 9.07681C48.5993 9.15526 49.0015 8.11082 48.3374 7.6108C48.2427 7.53954 48.1103 7.5584 48.0417 7.65306C47.973 7.74769 47.9942 7.8822 48.0889 7.95352C48.1997 8.03699 48.2603 8.171 48.2454 8.31186C48.219 8.56147 47.9578 8.7269 47.7146 8.61691L46.5702 8.09917L47.4378 7.94492C47.5526 7.92449 47.6276 7.81333 47.6053 7.69661C47.5831 7.57992 47.4721 7.50189 47.3571 7.52224L46.6317 7.65125C46.7768 7.54671 46.9261 7.44485 47.0794 7.3457L48.9375 6.93818C49.4656 6.82227 49.7227 6.22073 49.4488 5.74096ZM44.7676 11.0191C45.1567 10.8359 45.5034 11.3509 45.2052 11.6492C45.1188 11.7357 45 11.7737 44.8784 11.7533L43.6468 11.5466L44.7676 11.0191ZM44.6977 7.65762L44.2859 8.83986L43.9671 7.61488C43.8565 7.18969 44.4151 6.95181 44.6531 7.31074C44.722 7.41472 44.7383 7.54115 44.6977 7.65762ZM46.1968 9.27678C46.3137 9.24162 46.4377 9.26433 46.5368 9.33919C46.8794 9.59779 46.6165 10.1504 46.2026 10.0175L45.0099 9.63438L46.1968 9.27678ZM45.9389 7.22782L45.7595 5.9766C45.7418 5.85336 45.7816 5.73346 45.8687 5.64765C46.1692 5.35165 46.6706 5.71305 46.482 6.10342L45.9389 7.22782ZM49.1045 6.29931C49.0561 6.41254 48.9599 6.49247 48.8405 6.51867L47.6288 6.78443L48.4716 5.87225C48.7624 5.55754 49.2719 5.90723 49.1045 6.29931Z" fill="#456C4B"/>
<path d="M41.8828 18.0469L41.6484 17.9297C41.5703 17.8359 41.5234 17.7266 41.5078 17.6016L41.5312 12.9375C40.4531 11.2188 39.7422 9.96094 39.3984 9.16407L39.5156 8.92969C39.6406 8.83594 39.7891 8.79688 39.9609 8.8125L40.1953 8.92969C40.4609 9.42969 40.7578 9.91408 41.0859 10.3828C41.4141 10.8438 41.5898 11.2383 41.9531 11.8242C42.3164 12.4102 42.4896 11.625 42.4805 13.043C42.4714 14.4609 42.4336 17.6953 42.4336 17.6953L42.3164 17.9297C42.207 18.0234 42.0625 18.0625 41.8828 18.0469Z" fill="#394049"/>
<path d="M46.4062 18.2344C46.2031 18.2031 46.0195 18.0938 45.8555 17.9063C45.6914 17.7188 45.6172 17.5039 45.6328 17.2617C45.6484 17.0195 45.7539 16.8086 45.9492 16.6289C46.1445 16.4414 46.375 16.3789 46.6406 16.4414C46.9141 16.5039 47.1289 16.6289 47.2852 16.8164C47.4492 16.9961 47.5195 17.2031 47.4961 17.4375C47.4727 17.6641 47.3711 17.8594 47.1914 18.0234C47.0117 18.1953 46.75 18.2656 46.4062 18.2344Z" fill="#6897BA"/>
<path d="M52.5039 17.7891C52.1992 17.7578 51.9219 17.6758 51.6719 17.543C51.4219 17.4102 51.1211 17.1563 50.7695 16.7813C50.418 16.3984 50.1523 15.8672 49.9727 15.1875C49.793 14.5078 49.7148 13.8594 49.7383 13.2422C49.7617 12.625 49.8359 12.0859 49.9609 11.625C50.0859 11.1641 50.2695 10.7969 50.5117 10.5234C50.7539 10.2422 50.9648 10.0312 51.1445 9.89063C51.3242 9.75 51.5195 9.63672 51.7305 9.55079C51.9414 9.46485 52.168 9.40625 52.4102 9.375C52.6602 9.34375 52.9219 9.34375 53.1953 9.375C53.4688 9.40625 53.7148 9.51563 53.9336 9.70313C54.0742 9.84375 54.1367 10.0156 54.1211 10.2188L54.0039 10.4531C53.8945 10.5469 53.7539 10.5859 53.582 10.5703C53.1758 10.3203 52.8516 10.2149 52.6094 10.2539C52.3672 10.293 52.1016 10.418 51.8125 10.6289C51.5312 10.8399 51.2969 11.0859 51.1094 11.3672C50.9219 11.6406 50.793 11.9961 50.7227 12.4336C50.6523 12.8711 50.6406 13.3242 50.6875 13.793C50.7344 14.2617 50.8164 14.707 50.9336 15.1289C51.0508 15.5508 51.2148 15.8789 51.4258 16.1133C51.6445 16.3477 51.8477 16.5273 52.0352 16.6523C52.2227 16.7695 52.4258 16.8242 52.6445 16.8164C52.8633 16.8086 53.1133 16.6914 53.3945 16.4648L53.6758 16.4414L53.9102 16.5586C54.0039 16.6758 54.043 16.8203 54.0273 16.9922C53.6367 17.3984 53.3398 17.6328 53.1367 17.6953C52.9336 17.7578 52.7227 17.7891 52.5039 17.7891Z" fill="#394049"/>
<path d="M56.4062 18.2344C56.2031 18.2031 56.0195 18.0938 55.8555 17.9063C55.6914 17.7188 55.6172 17.5039 55.6328 17.2617C55.6484 17.0195 55.7539 16.8086 55.9492 16.6289C56.1445 16.4414 56.375 16.3789 56.6406 16.4414C56.9141 16.5039 57.1289 16.6289 57.2852 16.8164C57.4492 16.9961 57.5195 17.2031 57.4961 17.4375C57.4727 17.6641 57.3711 17.8594 57.1914 18.0234C57.0117 18.1953 56.75 18.2656 56.4062 18.2344Z" fill="#F7DC97"/>
<path d="M41.9268 18.2862L41.6922 18.1658C41.614 18.0694 41.567 17.957 41.5514 17.8285L41.5749 13.0338C40.4956 11.267 39.7839 9.97396 39.4398 9.15478L39.5571 8.91384C39.6822 8.81747 39.8308 8.77731 40.0029 8.79338L40.2375 8.91384C40.5034 9.42784 40.8006 9.92577 41.1291 10.4076C41.4576 10.8815 41.6335 11.2871 41.9972 11.8894C42.3609 12.4917 42.5342 11.6846 42.5251 13.1423C42.516 14.5999 42.4782 17.9248 42.4782 17.9248L42.3609 18.1658C42.2514 18.2621 42.1067 18.3023 41.9268 18.2862Z" fill="#456C4B"/>
</g>
</g>
<defs>
<clipPath id="clip0">
<rect width="58" height="20" fill="white"/>
</clipPath>
<clipPath id="clip1">
<rect width="30" height="12" fill="white" transform="translate(8 8)"/>
</clipPath>
<clipPath id="clip2">
<rect width="21" height="15" fill="white" transform="translate(39 4)"/>
</clipPath>
</defs>
</svg>
