<svg width="61" height="20" viewBox="0 0 61 20" fill="none" xmlns="http://www.w3.org/2000/svg">
<path d="M36.0923 20C33.7317 20 31.5971 19.1088 30.0807 17.6799C28.5643 19.1091 26.4298 20 24.0692 20C19.4787 20 15.7445 16.6315 15.7445 12.4912C15.7445 11.339 16.78 10.4052 18.0571 10.4052C19.3347 10.4052 20.3696 11.3392 20.3696 12.4912C20.3696 14.331 22.0292 15.8279 24.0689 15.8279C26.1084 15.8279 27.7679 14.331 27.7679 12.4912C27.7679 11.339 28.8031 10.4052 30.0804 10.4052C31.3581 10.4052 32.393 11.3392 32.393 12.4912C32.393 14.331 34.0525 15.8279 36.092 15.8279C38.1317 15.8279 39.7913 14.331 39.7913 12.4912C39.7913 11.339 40.8265 10.4052 42.1038 10.4052C43.3812 10.4052 44.4164 11.3392 44.4164 12.4912C44.4169 16.6315 40.6828 20 36.0923 20Z" fill="#394049"/>
<path d="M2.31254 6.47515C1.03492 6.47515 0 5.54112 0 4.38921V2.08591C0 0.933769 1.0352 0 2.31254 0C3.59016 0 4.62508 0.934004 4.62508 2.08591V4.38921C4.62536 5.54112 3.59016 6.47515 2.31254 6.47515Z" fill="#394049"/>
<path d="M57.8485 6.47515C56.5708 6.47515 55.5358 5.54112 55.5358 4.38921V2.08591C55.5358 0.933769 56.5713 0 57.8485 0C59.1256 0 60.1611 0.934004 60.1611 2.08591V4.38921C60.1616 5.54112 59.1256 6.47515 57.8485 6.47515Z" fill="#394049"/>
</svg>
