<svg width="256.5" height="279" viewBox="0 0 513 558" fill="none" xmlns="http://www.w3.org/2000/svg">
<path d="M363.596 388.935C292.904 366.453 257 280.927 257 280.927C257 280.927 335.711 231.851 406.404 254.333C477.096 276.815 513 362.342 513 362.342C513 362.342 434.289 411.417 363.596 388.935Z" fill="#C3EA21" fill-opacity="0.3"/>
<path d="M278.668 431.124C235.124 371.067 257 280.927 257 280.927C257 280.927 349.475 288.157 393.019 348.214C436.563 408.271 414.687 498.411 414.687 498.411C414.687 498.411 322.212 491.18 278.668 431.124Z" fill="#8ADB53" fill-opacity="0.3"/>
<path d="M150.403 388.935C221.096 366.453 257 280.927 257 280.927C257 280.927 178.289 231.851 107.596 254.333C36.904 276.815 1 362.342 1 362.342C1 362.342 79.711 411.417 150.403 388.935Z" fill="#206B34" fill-opacity="0.3"/>
<path d="M235.332 431.124C278.876 371.067 257 280.927 257 280.927C257 280.927 164.525 288.157 120.981 348.214C77.437 408.271 99.313 498.411 99.313 498.411C99.313 498.411 191.788 491.18 235.332 431.124Z" fill="#369151" fill-opacity="0.3"/>
<path d="M186.377 415.244C186.377 341.063 257 280.927 257 280.927C257 280.927 327.623 341.063 327.623 415.244C327.623 489.425 257 549.561 257 549.561C257 549.561 186.377 489.425 186.377 415.244Z" fill="#4FC16E" fill-opacity="0.3"/>
<path d="M149.404 171.065C220.096 193.547 256 279.073 256 279.073C256 279.073 177.289 328.149 106.596 305.667C35.904 283.185 0 197.658 0 197.658C0 197.658 78.711 148.583 149.404 171.065Z" fill="#C3EA21" fill-opacity="0.3"/>
<path d="M234.332 128.876C277.876 188.933 256 279.073 256 279.073C256 279.073 163.525 271.843 119.981 211.786C76.437 151.729 98.313 61.589 98.313 61.589C98.313 61.589 190.788 68.82 234.332 128.876Z" fill="#8ADB53" fill-opacity="0.3"/>
<path d="M362.597 171.065C291.904 193.547 256 279.073 256 279.073C256 279.073 334.711 328.149 405.404 305.667C476.096 283.185 512 197.658 512 197.658C512 197.658 433.289 148.583 362.597 171.065Z" fill="#206B34" fill-opacity="0.3"/>
<path d="M277.668 128.876C234.124 188.933 256 279.073 256 279.073C256 279.073 348.475 271.843 392.019 211.786C435.563 151.729 413.687 61.589 413.687 61.589C413.687 61.589 321.212 68.82 277.668 128.876Z" fill="#369151" fill-opacity="0.3"/>
<path d="M326.623 144.756C326.623 218.937 256 279.073 256 279.073C256 279.073 185.377 218.937 185.377 144.756C185.377 70.575 256 10.439 256 10.439C256 10.439 326.623 70.575 326.623 144.756Z" fill="#4FC16E" fill-opacity="0.3"/>
</svg>
